<svg width="96" height="96" viewBox="0 0 96 96" fill="none" xmlns="http://www.w3.org/2000/svg">
<rect width="96" height="96" rx="7" fill="#202024"/>
<path opacity="0.5" d="M79.9844 18.4053L64.3256 73.25C64.246 73.499 63.9275 73.5737 63.7417 73.3994L53.2583 63.5657L61.1142 36.0811C61.1939 35.8322 60.955 35.6081 60.6896 35.6828L31.389 43.0518L20.9587 33.2679C20.7729 33.0937 20.8525 32.7949 21.1179 32.7202L79.5598 18.007C79.8252 17.9572 80.0641 18.1813 79.9844 18.4053Z" fill="#00B37E"/>
<path opacity="0.5" d="M53.2578 63.5652L49.2236 77.7556C49.144 78.0046 48.8255 78.0793 48.6397 77.905L16.1013 47.4081C15.9155 47.2338 15.9951 46.9351 16.2605 46.8604L31.3885 43.0514L53.2578 63.5652Z" fill="#00B37E"/>
<path d="M61.1129 36.0806L53.257 63.5652L31.3877 43.0514L60.6883 35.6823C60.9537 35.6076 61.1925 35.8317 61.1129 36.0806Z" fill="#00B37E"/>
</svg>
